<?xml version="1.0" encoding="UTF-8"?>
<svg version="1.1" xmlns="http://www.w3.org/2000/svg" width="394" height="469">
<path d="M0 0 C2.29925003 2.14911244 4.1914964 4.45383845 6.09375 6.95703125 C6.97933594 6.46074219 7.86492187 5.96445313 8.77734375 5.453125 C23.82012386 -2.85435835 37.99360971 -8.76060916 55.09375 -11.04296875 C56.88425781 -11.31560547 56.88425781 -11.31560547 58.7109375 -11.59375 C70.71100846 -13.18729291 84.90791619 -12.35280243 95.09375 -5.04296875 C97.26171875 -2.73828125 97.26171875 -2.73828125 99.28125 -0.16796875 C100.29251953 1.09660156 100.29251953 1.09660156 101.32421875 2.38671875 C103.02648146 4.8593211 104.10690441 7.13313465 105.09375 9.95703125 C105.75375 9.95703125 106.41375 9.95703125 107.09375 9.95703125 C118.04156927 24.62603047 118.04156927 24.62603047 118.140625 32.84765625 C118.44739479 35.57488378 118.74224253 36.6298872 120.77392578 38.52075195 C123.117039 39.99677203 125.49549263 41.27392374 127.96875 42.51953125 C129.71296874 43.46349769 131.45646271 44.40880458 133.19921875 45.35546875 C134.04403809 45.80245117 134.88885742 46.24943359 135.75927734 46.70996094 C148.30087464 53.40965546 157.31735061 61.30775239 164.09375 73.95703125 C164.43195318 75.28913766 164.76677295 76.62212493 165.09375 77.95703125 C166.97691159 79.06539548 166.97691159 79.06539548 169.09375 79.95703125 C171.33475531 81.67541849 172.02517947 82.51714567 172.46606445 85.34545898 C172.4630835 86.26786377 172.46010254 87.19026855 172.45703125 88.140625 C172.45638672 89.15060547 172.45574219 90.16058594 172.45507812 91.20117188 C172.43896484 92.25498047 172.42285156 93.30878906 172.40625 94.39453125 C172.41108398 95.96944336 172.41108398 95.96944336 172.41601562 97.57617188 C172.35441732 106.36233057 172.35441732 106.36233057 170.09375 109.95703125 C169.43761719 110.43269531 168.78148437 110.90835938 168.10546875 111.3984375 C165.61888113 113.32493936 165.04626622 114.98989222 163.90625 117.89453125 C162.03824683 121.88998248 160.80971406 123.54190448 156.65625 125.08203125 C155.87507813 125.3553125 155.09390625 125.62859375 154.2890625 125.91015625 C150.98700694 127.48480196 149.61332811 129.97715359 147.59765625 132.9375 C141.76809847 140.76576331 132.02516262 143.97989371 123.09375 146.95703125 C123.43155208 152.84653712 125.1166295 155.81241301 129.21875 159.83203125 C130.22608115 160.87947303 131.23128601 161.92896374 132.234375 162.98046875 C132.72486328 163.48803711 133.21535156 163.99560547 133.72070312 164.51855469 C140.19891583 171.30547312 143.8656562 178.1855212 147.09375 186.95703125 C147.48820312 187.9934375 147.88265625 189.02984375 148.2890625 190.09765625 C151.09375 197.58989838 151.09375 197.58989838 151.09375 199.95703125 C151.7125 200.06015625 152.33125 200.16328125 152.96875 200.26953125 C155.09375 200.95703125 155.09375 200.95703125 157.09375 203.95703125 C158.17064287 209.08095701 159.04628904 214.40520023 156.09375 218.95703125 C152.0090767 223.87845704 148.18628755 226.96524013 142.09375 228.95703125 C141.10375 228.95703125 140.11375 228.95703125 139.09375 228.95703125 C139.14015625 229.60929688 139.1865625 230.2615625 139.234375 230.93359375 C139.4794091 236.86691957 139.18258707 240.31564863 135.09375 244.95703125 C131.95131119 248.09947006 128.62064529 249.65404765 124.59375 251.39453125 C120.1302383 253.35513919 117.34826791 255.26271363 114.09375 258.95703125 C101.09559234 272.0539091 83.03025096 279.54215901 65.7265625 285.05859375 C60.66967637 286.78423738 56.13664493 288.39268885 53.09375 292.95703125 C53.96773438 293.08078125 54.84171875 293.20453125 55.7421875 293.33203125 C71.76192159 296.31939425 82.69560085 307.1301031 93.13671875 318.7421875 C95.34853499 321.18697334 97.61551494 323.41014252 100.15625 325.51953125 C103.92951412 328.66797529 107.25086074 332.17703439 110.59375 335.76953125 C111.13523682 336.34582275 111.67672363 336.92211426 112.23461914 337.51586914 C116.09375 341.71322574 116.09375 341.71322574 116.09375 343.95703125 C51.49136906 344.12967801 -13.09851948 343.68618987 -77.69702148 342.99149323 C-80.82795991 342.95787196 -83.95890135 342.92454532 -87.08984375 342.89129639 C-126.03422411 342.47672496 -164.97377082 342.04609356 -203.90625 340.95703125 C-203.95255457 331.23007823 -203.98810963 321.50315136 -204.00987434 311.77611065 C-204.02031938 307.25963643 -204.03449169 302.74323752 -204.05712891 298.22680664 C-204.07883165 293.86963471 -204.0908132 289.5125353 -204.09600449 285.15531349 C-204.09970487 283.49150259 -204.10693063 281.82769573 -204.11771011 280.16391563 C-204.13219099 277.83664696 -204.13422939 275.5096794 -204.13330078 273.18237305 C-204.14408661 272.1465937 -204.14408661 272.1465937 -204.15509033 271.08988953 C-204.13942702 267.47114784 -203.97674303 266.06277079 -201.90625 262.95703125 C-199.5234375 262.0078125 -199.5234375 262.0078125 -196.78125 261.26953125 C-195.87117188 261.01816406 -194.96109375 260.76679688 -194.0234375 260.5078125 C-192.97542969 260.23517578 -192.97542969 260.23517578 -191.90625 259.95703125 C-192.40253906 259.54453125 -192.89882812 259.13203125 -193.41015625 258.70703125 C-204.93204399 248.91233351 -211.63254252 239.16029992 -216.09375 224.70703125 C-216.43599609 223.65128906 -216.77824219 222.59554687 -217.13085938 221.5078125 C-220.43786072 211.01530726 -222.26238963 200.7754472 -222.21875 189.76953125 C-222.24291992 188.53299805 -222.24291992 188.53299805 -222.26757812 187.27148438 C-222.27442076 178.57449458 -219.80571503 171.8151773 -215.09375 164.51953125 C-214.56491211 163.68035156 -214.56491211 163.68035156 -214.02539062 162.82421875 C-212.49898303 160.4030205 -210.94080825 158.00788247 -209.33203125 155.640625 C-203.59839824 146.85952677 -200.47841074 136.75255048 -196.90625 126.95703125 C-194.16428253 119.48257183 -191.1868899 112.18104036 -187.84375 104.95703125 C-187.35068359 103.87856934 -187.35068359 103.87856934 -186.84765625 102.77832031 C-184.93531221 98.7222386 -182.87546087 95.36432242 -179.90625 91.95703125 C-179.101875 90.96703125 -178.2975 89.97703125 -177.46875 88.95703125 C-173.61676462 84.44738984 -169.5623403 80.61538791 -164.90625 76.95703125 C-163.73725039 75.9388703 -162.57072806 74.91786045 -161.40625 73.89453125 C-159.36594055 72.1147808 -157.69835882 70.84813587 -155.28125 69.58203125 C-151.69823051 67.1304916 -150.02642119 63.64524571 -147.90625 59.95703125 C-146.87270257 58.25329291 -145.83899416 56.5496507 -144.80297852 54.84741211 C-141.16039802 48.84262166 -137.64536543 42.77491497 -134.21875 36.64453125 C-124.51295957 19.30146577 -124.51295957 19.30146577 -118.90625 12.95703125 C-118.308125 12.15265625 -117.71 11.34828125 -117.09375 10.51953125 C-114.02392558 6.92345121 -110.53964574 3.97025555 -106.90625 0.95703125 C-106.34550781 0.47363281 -105.78476563 -0.00976562 -105.20703125 -0.5078125 C-75.03893916 -24.9812535 -30.56726763 -23.57053916 0 0 Z " fill="#03FDD7" transform="translate(221.90625,71.04296875)"/>
<path d="M0 0 C2.29925003 2.14911244 4.1914964 4.45383845 6.09375 6.95703125 C6.97933594 6.46074219 7.86492187 5.96445313 8.77734375 5.453125 C23.82012386 -2.85435835 37.99360971 -8.76060916 55.09375 -11.04296875 C56.88425781 -11.31560547 56.88425781 -11.31560547 58.7109375 -11.59375 C70.71100846 -13.18729291 84.90791619 -12.35280243 95.09375 -5.04296875 C97.26171875 -2.73828125 97.26171875 -2.73828125 99.28125 -0.16796875 C100.29251953 1.09660156 100.29251953 1.09660156 101.32421875 2.38671875 C103.02648146 4.8593211 104.10690441 7.13313465 105.09375 9.95703125 C105.75375 9.95703125 106.41375 9.95703125 107.09375 9.95703125 C118.04156927 24.62603047 118.04156927 24.62603047 118.140625 32.84765625 C118.44739479 35.57488378 118.74224253 36.6298872 120.77392578 38.52075195 C123.117039 39.99677203 125.49549263 41.27392374 127.96875 42.51953125 C129.71296874 43.46349769 131.45646271 44.40880458 133.19921875 45.35546875 C134.04403809 45.80245117 134.88885742 46.24943359 135.75927734 46.70996094 C148.30087464 53.40965546 157.31735061 61.30775239 164.09375 73.95703125 C164.43195318 75.28913766 164.76677295 76.62212493 165.09375 77.95703125 C166.97691159 79.06539548 166.97691159 79.06539548 169.09375 79.95703125 C171.33475531 81.67541849 172.02517947 82.51714567 172.46606445 85.34545898 C172.4630835 86.26786377 172.46010254 87.19026855 172.45703125 88.140625 C172.45638672 89.15060547 172.45574219 90.16058594 172.45507812 91.20117188 C172.43896484 92.25498047 172.42285156 93.30878906 172.40625 94.39453125 C172.41108398 95.96944336 172.41108398 95.96944336 172.41601562 97.57617188 C172.35441732 106.36233057 172.35441732 106.36233057 170.09375 109.95703125 C169.43761719 110.43269531 168.78148437 110.90835938 168.10546875 111.3984375 C165.61888113 113.32493936 165.04626622 114.98989222 163.90625 117.89453125 C162.03824683 121.88998248 160.80971406 123.54190448 156.65625 125.08203125 C155.87507813 125.3553125 155.09390625 125.62859375 154.2890625 125.91015625 C150.98700694 127.48480196 149.61332811 129.97715359 147.59765625 132.9375 C141.76809847 140.76576331 132.02516262 143.97989371 123.09375 146.95703125 C123.43155208 152.84653712 125.1166295 155.81241301 129.21875 159.83203125 C130.22608115 160.87947303 131.23128601 161.92896374 132.234375 162.98046875 C132.72486328 163.48803711 133.21535156 163.99560547 133.72070312 164.51855469 C140.19891583 171.30547312 143.8656562 178.1855212 147.09375 186.95703125 C147.48820312 187.9934375 147.88265625 189.02984375 148.2890625 190.09765625 C151.09375 197.58989838 151.09375 197.58989838 151.09375 199.95703125 C151.7125 200.06015625 152.33125 200.16328125 152.96875 200.26953125 C155.09375 200.95703125 155.09375 200.95703125 157.09375 203.95703125 C158.17064287 209.08095701 159.04628904 214.40520023 156.09375 218.95703125 C152.0090767 223.87845704 148.18628755 226.96524013 142.09375 228.95703125 C141.10375 228.95703125 140.11375 228.95703125 139.09375 228.95703125 C139.14015625 229.60929688 139.1865625 230.2615625 139.234375 230.93359375 C139.4794091 236.86691957 139.18258707 240.31564863 135.09375 244.95703125 C131.95131119 248.09947006 128.62064529 249.65404765 124.59375 251.39453125 C120.1302383 253.35513919 117.34826791 255.26271363 114.09375 258.95703125 C101.09559234 272.0539091 83.03025096 279.54215901 65.7265625 285.05859375 C60.66967637 286.78423738 56.13664493 288.39268885 53.09375 292.95703125 C53.96773438 293.08078125 54.84171875 293.20453125 55.7421875 293.33203125 C71.76192159 296.31939425 82.69560085 307.1301031 93.13671875 318.7421875 C95.34853499 321.18697334 97.61551494 323.41014252 100.15625 325.51953125 C103.92951412 328.66797529 107.25086074 332.17703439 110.59375 335.76953125 C111.13523682 336.34582275 111.67672363 336.92211426 112.23461914 337.51586914 C116.09375 341.71322574 116.09375 341.71322574 116.09375 343.95703125 C51.49136906 344.12967801 -13.09851948 343.68618987 -77.69702148 342.99149323 C-80.82795991 342.95787196 -83.95890135 342.92454532 -87.08984375 342.89129639 C-126.03422411 342.47672496 -164.97377082 342.04609356 -203.90625 340.95703125 C-203.95255457 331.23007823 -203.98810963 321.50315136 -204.00987434 311.77611065 C-204.02031938 307.25963643 -204.03449169 302.74323752 -204.05712891 298.22680664 C-204.07883165 293.86963471 -204.0908132 289.5125353 -204.09600449 285.15531349 C-204.09970487 283.49150259 -204.10693063 281.82769573 -204.11771011 280.16391563 C-204.13219099 277.83664696 -204.13422939 275.5096794 -204.13330078 273.18237305 C-204.14408661 272.1465937 -204.14408661 272.1465937 -204.15509033 271.08988953 C-204.13942702 267.47114784 -203.97674303 266.06277079 -201.90625 262.95703125 C-199.5234375 262.0078125 -199.5234375 262.0078125 -196.78125 261.26953125 C-195.87117188 261.01816406 -194.96109375 260.76679688 -194.0234375 260.5078125 C-192.97542969 260.23517578 -192.97542969 260.23517578 -191.90625 259.95703125 C-192.40253906 259.54453125 -192.89882812 259.13203125 -193.41015625 258.70703125 C-204.93204399 248.91233351 -211.63254252 239.16029992 -216.09375 224.70703125 C-216.43599609 223.65128906 -216.77824219 222.59554687 -217.13085938 221.5078125 C-220.43786072 211.01530726 -222.26238963 200.7754472 -222.21875 189.76953125 C-222.24291992 188.53299805 -222.24291992 188.53299805 -222.26757812 187.27148438 C-222.27442076 178.57449458 -219.80571503 171.8151773 -215.09375 164.51953125 C-214.56491211 163.68035156 -214.56491211 163.68035156 -214.02539062 162.82421875 C-212.49898303 160.4030205 -210.94080825 158.00788247 -209.33203125 155.640625 C-203.59839824 146.85952677 -200.47841074 136.75255048 -196.90625 126.95703125 C-194.16428253 119.48257183 -191.1868899 112.18104036 -187.84375 104.95703125 C-187.35068359 103.87856934 -187.35068359 103.87856934 -186.84765625 102.77832031 C-184.93531221 98.7222386 -182.87546087 95.36432242 -179.90625 91.95703125 C-179.101875 90.96703125 -178.2975 89.97703125 -177.46875 88.95703125 C-173.61676462 84.44738984 -169.5623403 80.61538791 -164.90625 76.95703125 C-163.73725039 75.9388703 -162.57072806 74.91786045 -161.40625 73.89453125 C-159.36594055 72.1147808 -157.69835882 70.84813587 -155.28125 69.58203125 C-151.69823051 67.1304916 -150.02642119 63.64524571 -147.90625 59.95703125 C-146.87270257 58.25329291 -145.83899416 56.5496507 -144.80297852 54.84741211 C-141.16039802 48.84262166 -137.64536543 42.77491497 -134.21875 36.64453125 C-124.51295957 19.30146577 -124.51295957 19.30146577 -118.90625 12.95703125 C-118.308125 12.15265625 -117.71 11.34828125 -117.09375 10.51953125 C-114.02392558 6.92345121 -110.53964574 3.97025555 -106.90625 0.95703125 C-106.34550781 0.47363281 -105.78476563 -0.00976562 -105.20703125 -0.5078125 C-75.03893916 -24.9812535 -30.56726763 -23.57053916 0 0 Z M-104.90625 3.95703125 C-105.62167969 4.52035156 -106.33710937 5.08367187 -107.07421875 5.6640625 C-120.02128447 16.35728699 -127.47915594 31.64757846 -135.59375 46.01171875 C-137.37771532 49.10446589 -139.25368265 52.13119801 -141.15625 55.15234375 C-141.7327832 56.06935059 -142.30931641 56.98635742 -142.90332031 57.93115234 C-144.04116659 59.7330064 -145.18596182 61.53049795 -146.33886719 63.32275391 C-152.08784161 72.42616622 -155.29716853 81.18648142 -157.15625 91.76953125 C-157.32898438 92.68412109 -157.50171875 93.59871094 -157.6796875 94.54101562 C-158.45166839 98.75321293 -158.99566676 102.66264883 -158.90625 106.95703125 C-159.89625 106.95703125 -160.88625 106.95703125 -161.90625 106.95703125 C-160.92786361 102.90017703 -159.94926044 98.84337518 -158.97045898 94.78662109 C-158.6377175 93.4074036 -158.30503459 92.02817198 -157.97241211 90.64892578 C-157.49348207 88.66304845 -157.01433935 86.67722253 -156.53515625 84.69140625 C-156.24713135 83.49741211 -155.95910645 82.30341797 -155.66235352 81.07324219 C-155.08619743 78.69866799 -154.50369811 76.32631047 -153.90625 73.95703125 C-165.30093587 77.30585114 -177.35218987 92.04076938 -182.90625 101.95703125 C-187.43658034 110.88282419 -190.97464234 120.2582269 -194.30859375 129.68359375 C-198.96342722 142.81855646 -203.91208138 154.56419794 -211.7109375 166.140625 C-220.41305652 179.36443332 -220.22623732 192.69633497 -217.28125 207.83203125 C-212.58983131 230.23638489 -204.54472207 246.74523319 -186.1640625 260.84375 C-179.46941637 265.18644012 -172.33814116 267.61451529 -164.6328125 269.5078125 C-163.76430161 269.72744156 -162.89579071 269.94707062 -162.0009613 270.1733551 C-159.18016985 270.88235922 -156.35621467 271.5773543 -153.53125 272.26953125 C-152.55606415 272.51036438 -151.5808783 272.75119751 -150.57614136 272.99932861 C-69.48514014 292.98449138 26.42044161 310.05309164 102.09375 264.95703125 C107.07038966 261.58916965 111.74387827 257.98183885 115.09375 252.95703125 C114.5263208 253.02631836 113.9588916 253.09560547 113.37426758 253.16699219 C79.21574191 256.99530836 43.57357714 252.41617592 9.52313232 249.26159668 C7.81594767 249.10367961 6.10847554 248.9488313 4.4006958 248.79748535 C-8.68260578 247.62333869 -21.33797487 245.40724587 -33.98413086 241.81323242 C-43.89461326 239.03715611 -52.89635646 238.51659018 -63.15625 238.83203125 C-91.03004623 239.5443616 -91.03004623 239.5443616 -99.90625 231.95703125 C-101.95848207 227.85256711 -101.41707706 223.00033947 -100.328125 218.64453125 C-97.54168151 211.34911557 -92.3055393 206.41975632 -85.5546875 202.640625 C-61.88588071 192.19396924 -33.78450277 198.41595142 -10.67163086 206.76416016 C-5.59337602 208.53626805 -0.66656436 209.71023818 4.65625 210.45703125 C5.50082764 210.57667236 6.34540527 210.69631348 7.21557617 210.81958008 C10.17255967 211.2208496 13.13189854 211.59343151 16.09375 211.95703125 C17.22232422 212.0967334 18.35089844 212.23643555 19.51367188 212.38037109 C49.10590185 215.90610124 78.56273555 216.16725565 108.21875 213.20703125 C109.43535812 213.08955032 109.43535812 213.08955032 110.67654419 212.96969604 C124.09228087 211.63649875 136.49963026 209.26701889 148.09375 201.95703125 C146.51111924 188.48268879 139.84912945 174.34461363 130.09375 164.95703125 C129.23652344 164.28414062 128.37929688 163.61125 127.49609375 162.91796875 C123.11409823 159.34112038 120.55454382 154.94198926 119.28125 149.45703125 C119.1884375 148.21953125 119.1884375 148.21953125 119.09375 146.95703125 C113.59767468 147.43825443 108.16815681 148.09184107 102.71875 148.95703125 C93.55655759 150.31514384 84.34021974 150.60354448 75.09375 150.95703125 C76.74375 153.26703125 78.39375 155.57703125 80.09375 157.95703125 C79.12888672 157.10431641 79.12888672 157.10431641 78.14453125 156.234375 C71.18284506 150.28565884 64.28572462 146.00743523 56.09375 141.95703125 C59.73690125 141.95703125 60.8583486 142.968811 63.890625 144.91796875 C70.70613748 148.71953005 76.67316057 148.79931017 84.34375 148.58203125 C85.65553223 148.56019775 86.96731445 148.53836426 88.31884766 148.51586914 C105.64183359 148.11202669 128.32009363 146.80244886 141.859375 134.4296875 C143.52222002 132.5895111 145.16622051 130.76477204 146.71875 128.83203125 C147.5025 127.88328125 148.28625 126.93453125 149.09375 125.95703125 C149.5475 125.40015625 150.00125 124.84328125 150.46875 124.26953125 C152.09375 122.95703125 152.09375 122.95703125 155.65625 121.58203125 C159.25825658 120.32670183 159.25825658 120.32670183 160.30859375 117.35546875 C160.69724609 116.16824219 160.69724609 116.16824219 161.09375 114.95703125 C160.28856934 115.18366455 159.48338867 115.41029785 158.65380859 115.64379883 C155.5943711 116.50269201 152.53386917 117.35766327 149.47265625 118.21020508 C147.52522821 118.75376717 145.57900068 119.30162462 143.6328125 119.84960938 C129.69723764 123.72455238 116.67759764 126.49552126 102.15625 126.33203125 C101.44363007 126.32837555 100.73101013 126.32471985 99.99679565 126.32095337 C84.59912628 126.22883919 69.15754098 125.41110126 54.41577148 120.65161133 C51.99307145 119.92691554 49.5789697 119.41746074 47.09375 118.95703125 C46.69285156 119.46492187 46.29195313 119.9728125 45.87890625 120.49609375 C42.10351018 125.06766178 38.42341126 128.21041053 33.41015625 131.33203125 C30.84385759 133.1323352 28.82323709 135.131998 26.65625 137.39453125 C14.8238933 149.5521761 -1.73145664 157.25163682 -17.90625 161.95703125 C-18.89625 161.95703125 -19.88625 161.95703125 -20.90625 161.95703125 C-20.34341309 161.75658203 -19.78057617 161.55613281 -19.20068359 161.34960938 C-1.47262772 154.97661354 13.05198347 147.64593655 27.09375 134.95703125 C23.69246184 133.85577185 21.05156907 134.04493657 17.52734375 134.515625 C16.41536621 134.65468262 15.30338867 134.79374023 14.15771484 134.93701172 C12.96098145 135.08799316 11.76424805 135.23897461 10.53125 135.39453125 C-22.49232998 139.20774889 -51.63607065 137.80381748 -79.90625 118.95703125 C-75.36260788 120.24693284 -71.5638083 122.18019267 -67.48510742 124.48657227 C-57.82125036 129.92378679 -48.80451191 133.09578136 -37.90625 134.95703125 C-36.4823999 135.21746216 -36.4823999 135.21746216 -35.02978516 135.4831543 C-20.89165872 137.62807406 -5.59375747 136.34043836 8.53125 134.64453125 C9.51714111 134.5269043 10.50303223 134.40927734 11.51879883 134.28808594 C24.3072455 132.59465349 36.50253404 130.37062635 45.09375 119.95703125 C45.96613858 117.27912229 45.96613858 117.27912229 46.09375 114.95703125 C44.33744889 114.11198489 44.33744889 114.11198489 42.09375 113.95703125 C39.75287746 115.47054323 39.75287746 115.47054323 37.46875 117.64453125 C20.81687402 131.61455312 -5.40707187 129.87800882 -25.90625 128.95703125 C-42.5346451 127.48283597 -58.07498652 119.1530535 -72.39453125 110.9921875 C-78.61360807 107.4692853 -84.22732697 104.9998328 -91.25 103.5625 C-93.95182922 102.94664187 -96.36363605 102.04869702 -98.90625 100.95703125 C-98.41844512 95.46922637 -98.41844512 95.46922637 -96.09375 93.14453125 C-92.0837363 90.96766667 -88.41992589 90.86191229 -83.90625 90.70703125 C-70.67727162 89.70528233 -57.49425303 82.11736556 -47.26953125 73.81640625 C-38.65194003 67.03628489 -27.45643195 66.38584306 -16.90625 66.95703125 C-15.91625 67.28703125 -14.92625 67.61703125 -13.90625 67.95703125 C-14.89625 67.93382812 -15.88625 67.910625 -16.90625 67.88671875 C-29.66395162 67.67174671 -40.22087713 69.45371081 -50.46875 77.70703125 C-54.58327372 80.96294568 -59.09211968 83.33278453 -63.71875 85.76953125 C-64.85002319 86.36556152 -64.85002319 86.36556152 -66.00415039 86.97363281 C-70.33691029 89.22403762 -74.06822557 90.97573822 -78.99609375 91.38671875 C-79.78048828 91.46019531 -80.56488281 91.53367187 -81.37304688 91.609375 C-83.0156258 91.75740188 -84.658885 91.89807078 -86.30273438 92.03125 C-92.15860983 92.59330125 -92.15860983 92.59330125 -96.90625 95.95703125 C-96.33280063 98.82427811 -96.0447985 99.81848275 -93.90625 101.95703125 C-87.17386167 104.04791638 -80.27269004 104.2675632 -73.28125 104.20703125 C-72.41113281 104.21476562 -71.54101562 104.2225 -70.64453125 104.23046875 C-55.05515061 104.18560722 -41.58080155 100.98762744 -26.96875 95.95703125 C-24.53111615 95.13066537 -22.092089 94.30872983 -19.651474 93.49121094 C-18.15122555 92.98738643 -16.65280199 92.47807641 -15.15675354 91.96191406 C-0.63332121 87.03299122 13.54386898 86.81566591 28.71875 86.89453125 C30.40755076 86.89955648 32.09635296 86.90411757 33.78515625 86.90820312 C37.88805711 86.91912726 41.99088727 86.93633545 46.09375 86.95703125 C47.34160655 82.60483403 46.45345185 80.7651186 44.32421875 76.85546875 C40.98247219 71.6996312 36.77560186 70.29393757 31.09375 68.95703125 C34.55875 68.46203125 34.55875 68.46203125 38.09375 67.95703125 C38.95733623 66.17561378 38.95733623 66.17561378 39.09375 63.95703125 C36.2456649 60.39863236 33.79783696 59.26266137 29.40625 58.26953125 C28.43300781 58.03878906 27.45976562 57.80804688 26.45703125 57.5703125 C2.28553753 53.16273467 -28.07181934 52.98037183 -49.3125 67.13671875 C-51.49135431 68.65294671 -53.63169698 70.21352267 -55.77734375 71.77734375 C-63.19796963 76.94676852 -71.27972694 80.36907433 -79.90625 82.95703125 C-78.2951453 79.73482185 -74.84041492 79.42571084 -71.59375 78.33203125 C-63.86124243 75.59199648 -57.54520002 71.79814156 -50.90625 66.95703125 C-35.29532749 55.60920938 -15.028844 53.76010611 3.65625 53.89453125 C4.85572266 53.89904297 6.05519531 53.90355469 7.29101562 53.90820312 C10.22531359 53.91989356 13.15950449 53.93627987 16.09375 53.95703125 C14.51242868 48.05600293 13.09663602 43.81060562 8.09375 39.95703125 C5.08950377 38.22735737 1.99899484 36.763989 -1.15625 35.33203125 C-1.96449219 34.95046875 -2.77273437 34.56890625 -3.60546875 34.17578125 C-21.45095565 25.89547533 -42.39180689 23.51667786 -61.40234375 29.5703125 C-72.28635946 33.87781036 -82.18195476 39.51258141 -91.91796875 45.9765625 C-94.54163649 47.71538544 -97.19370609 49.36171322 -99.90625 50.95703125 C-99.90625 50.29703125 -99.90625 49.63703125 -99.90625 48.95703125 C-99.3803125 48.72113281 -98.854375 48.48523438 -98.3125 48.2421875 C-95.80592492 46.90344854 -93.55131371 45.32732448 -91.23852539 43.68188477 C-69.68207511 28.53636014 -47.64571955 22.41813867 -21.4296875 26.2734375 C-16.54184719 27.22174355 -12.3840183 28.82197941 -7.90625 30.95703125 C-6.59172689 31.56376049 -5.27656992 32.16911746 -3.9609375 32.7734375 C-0.2650171 34.47848302 3.41671286 36.21166429 7.09375 37.95703125 C9.83753827 35.21324298 9.08503489 28.59994708 9.09375 24.95703125 C7.61243046 15.63818469 3.06668202 6.62396101 -4.296875 0.64453125 C-36.51430794 -20.19069484 -75.03662522 -20.14399169 -104.90625 3.95703125 Z " fill="#000000" transform="translate(221.90625,71.04296875)"/>
<path d="M0 0 C3.5 1.875 3.5 1.875 6 4 C6 4.66 6 5.32 6 6 C6.58265625 6.27585937 7.1653125 6.55171875 7.765625 6.8359375 C9.91933067 7.95797297 11.77775422 9.21287202 13.75 10.625 C33.72932245 23.98800523 56.95174556 29.38015477 80 35 C81.02495575 35.2506723 81.02495575 35.2506723 82.07061768 35.50640869 C101.14428288 40.16013585 120.08773046 44.177792 139.58276367 46.67260742 C141.39954287 46.91867357 143.20740077 47.23207184 145.0078125 47.578125 C170.06645686 51.11119757 203.50167502 48.43446192 226 36 C227.88466335 35.04024256 229.78136082 34.10386439 231.6875 33.1875 C232.57824219 32.74792969 233.46898437 32.30835938 234.38671875 31.85546875 C241.06341641 29.66982333 249.01030463 34.25736206 255.12695312 37.04052734 C263.6609334 41.41207876 270.41207309 49.18833218 277 56 C279.74516663 58.76352895 282.51191175 61.50327373 285.296875 64.2265625 C286.44797895 65.35931171 287.59901977 66.49212508 288.75 67.625 C289.63365234 68.48351562 289.63365234 68.48351562 290.53515625 69.359375 C291.37626953 70.19082031 291.37626953 70.19082031 292.234375 71.0390625 C292.74194336 71.53615723 293.24951172 72.03325195 293.77246094 72.54541016 C295 74 295 74 296 77 C87.89306711 75.49446217 87.89306711 75.49446217 -14 74 C-14.02571362 66.79989398 -14.0430164 59.59980013 -14.05493164 52.3996582 C-14.05990787 49.95889849 -14.06669125 47.51814168 -14.07543945 45.07739258 C-14.12568136 30.68160975 -13.97740245 16.36572232 -13 2 C-8.626886 0.10523657 -4.755877 -0.77874009 0 0 Z " fill="#A8A3CB" transform="translate(35,335)"/>
<path d="M0 0 C0.6712793 0.03577148 1.34255859 0.07154297 2.03417969 0.10839844 C13.74601102 0.80814588 24.00067429 3.21570895 34.98535156 7.26269531 C50.37570019 12.89513022 65.43857386 14.22022153 81.67041016 15.30322266 C83.36689697 15.41802979 83.36689697 15.41802979 85.09765625 15.53515625 C86.11351807 15.600979 87.12937988 15.66680176 88.17602539 15.73461914 C91 16 91 16 93.38581848 16.50849915 C95.87959544 16.97736234 98.11854072 17.12680914 100.65087891 17.12939453 C101.54175201 17.13254669 102.43262512 17.13569885 103.35049438 17.13894653 C104.29959686 17.1369223 105.24869934 17.13489807 106.2265625 17.1328125 C107.21119476 17.13376923 108.19582703 17.13472595 109.21029663 17.13571167 C111.28635726 17.13639076 113.36242004 17.13455539 115.43847656 17.13037109 C118.62049095 17.1250076 121.80236492 17.13033114 124.984375 17.13671875 C127.00260448 17.13605814 129.02083387 17.13477735 131.0390625 17.1328125 C131.99221344 17.13483673 132.94536438 17.13686096 133.92739868 17.13894653 C134.81196747 17.13579437 135.69653625 17.13264221 136.60791016 17.12939453 C137.38558746 17.12859894 138.16326477 17.12780334 138.96450806 17.12698364 C141.20355846 17.07467255 141.20355846 17.07467255 144 16 C145.97197364 15.81700199 147.94839543 15.6803744 149.92578125 15.5703125 C174.43402231 14.22610764 174.43402231 14.22610764 196.94140625 5.328125 C200.26702436 3.88405072 201.62019023 3.86710287 205 5 C205.96343285 9.7124433 206.54395295 12.89117282 204.375 17.3125 C199.38846423 22.9551589 195.09040094 24.87378695 187.9375 26.5625 C187.08406006 26.77302002 186.23062012 26.98354004 185.35131836 27.20043945 C183.65683848 27.61816188 181.96130103 28.03162161 180.26464844 28.44042969 C178.42969426 28.89382716 176.60697647 29.39655414 174.7890625 29.9140625 C159.2562725 34.3202121 142.59444808 34.35503904 126.5625 34.25 C125.69435669 34.24656586 124.82621338 34.24313171 123.9317627 34.23959351 C68.74677481 33.9871582 68.74677481 33.9871582 47 27 C46.319375 26.78408203 45.63875 26.56816406 44.9375 26.34570312 C39.46879088 24.5886667 34.03541908 22.72558921 28.625 20.796875 C14.11456302 16.19758471 -11.85860652 13.92930326 -26 21 C-14.51850043 20.3926174 -14.51850043 20.3926174 -3.0625 19.4375 C-1.37544147 19.28664529 0.31204243 19.14043807 2 19 C2.73347656 18.93296875 3.46695313 18.8659375 4.22265625 18.796875 C16.78760335 18.1934127 29.78952657 22.27601049 41.40118408 26.70080566 C52.24989496 30.61725598 62.97893992 32.71736794 74.453125 33.71875 C75.1088575 33.77881729 75.76459 33.83888458 76.44019318 33.90077209 C90.53931237 35.18083792 104.61480003 35.52534646 118.77197266 35.50097656 C122.76406433 35.49999655 126.75427245 35.54204454 130.74609375 35.5859375 C147.07945675 35.65907121 162.38834594 34.12392467 178.33624268 30.5645752 C181.21261549 29.9549368 184.09706934 29.46509169 187 29 C187.29446085 34.69290982 187.13663779 38.01593571 184 43 C171.79636019 51.46119027 157.47505169 52.19651569 143.125 52.1484375 C142.09544189 52.14629242 141.06588379 52.14414734 140.00512695 52.14193726 C128.50949333 52.06497102 117.04488341 51.48447377 105.56982422 50.828125 C101.97537855 50.62359903 98.3803924 50.43225692 94.78515625 50.2421875 C82.76997333 49.58713139 70.91476749 48.67984606 59 47 C56.49144408 46.69715885 53.9823181 46.39900405 51.47265625 46.10546875 C27.44759736 43.1727876 27.44759736 43.1727876 15.8359375 39.1484375 C4.05453024 35.36901433 -7.83198466 35.8351679 -20.02661133 36.11645508 C-38.1170404 36.50176167 -38.1170404 36.50176167 -46.625 31.4375 C-48.93252368 27.34688984 -48.05735618 23.44226915 -47 19 C-44.62366034 12.47145394 -39.74596669 7.85474 -33.59375 4.80859375 C-22.97237345 0.5756628 -11.35968032 -0.64831922 0 0 Z " fill="#00CABF" transform="translate(171,271)"/>
<path d="M0 0 C0.88171875 -0.020625 1.7634375 -0.04125 2.671875 -0.0625 C10.68886221 -0.10952045 19.13580477 1.19393092 25.625 6.25 C27.56405636 8.33195734 29.2879096 10.54213902 31 12.8125 C31.47896729 13.43729248 31.95793457 14.06208496 32.45141602 14.70581055 C33.85383016 16.54572694 35.24155148 18.39579826 36.625 20.25 C37.32753906 21.18328125 38.03007812 22.1165625 38.75390625 23.078125 C43.86622888 30.10066754 47.94241533 36.36237066 47.625 45.25 C46.75359375 45.04503906 45.8821875 44.84007812 44.984375 44.62890625 C43.79328125 44.35949219 42.6021875 44.09007812 41.375 43.8125 C40.21484375 43.54566406 39.0546875 43.27882812 37.859375 43.00390625 C26.29184588 40.74840702 14.36206463 41.01186356 2.625 41 C1.74937408 40.99832825 0.87374817 40.99665649 -0.02841187 40.99493408 C-19.41097321 40.99272803 -38.31484006 42.58431315 -57.375 46.25 C-57.354375 45.43136475 -57.33375 44.61272949 -57.3125 43.76928711 C-57.12374311 35.02822112 -57.97957332 27.33910474 -61.375 19.25 C-41.4506424 8.39532576 -23.08729803 0.13383941 0 0 Z " fill="#03FDD7" transform="translate(289.375,62.75)"/>
<path d="M0 0 C0.78385071 -0.00163147 1.56770142 -0.00326294 2.37530518 -0.00494385 C33.04816217 0.00229886 56.43880457 8.08444955 81.1875 26.375 C80.8575 27.035 80.5275 27.695 80.1875 28.375 C79.56746094 28.04886719 78.94742188 27.72273438 78.30859375 27.38671875 C64.98423433 20.8118165 51.46229495 19.81803253 36.875 19.9375 C36.10714172 19.93987671 35.33928345 19.94225342 34.54815674 19.94470215 C23.74656968 19.99696109 13.57575141 20.65613328 3.19091797 23.80175781 C0.93566746 24.44705737 -1.32934415 24.96096908 -3.62109375 25.4609375 C-4.41692871 25.6352832 -5.21276367 25.80962891 -6.03271484 25.98925781 C-7.55478158 26.32114895 -9.07722387 26.65132408 -10.60009766 26.97949219 C-12.35314244 27.38199633 -14.08595317 27.87080596 -15.8125 28.375 C-16.1425 29.035 -16.4725 29.695 -16.8125 30.375 C-16.26126465 30.20895264 -15.7100293 30.04290527 -15.14208984 29.87182617 C12.87180642 21.5473505 49.59395119 14.41980266 77.28125 27.87890625 C83.50541171 31.25536291 87.6588051 34.19978393 91.1875 40.375 C90.8575 41.035 90.5275 41.695 90.1875 42.375 C89.60226562 42.14425781 89.01703125 41.91351563 88.4140625 41.67578125 C82.39627901 39.38974638 76.32094082 37.47971631 70.125 35.75 C69.02889404 35.44122925 69.02889404 35.44122925 67.91064453 35.1262207 C65.67604003 34.51278524 63.4363095 33.93407769 61.1875 33.375 C60.42083008 33.18373535 59.65416016 32.9924707 58.86425781 32.79541016 C32.90431377 26.93264075 5.23776727 33.26685454 -19.8125 40.375 C-21.14472863 40.71272142 -22.47779092 41.04721874 -23.8125 41.375 C-27.95379133 37.02664411 -28.94469655 35.4560411 -28.8125 29.375 C-31.06112572 26.19094598 -33.06636169 25.13100371 -36.78125 24.42578125 C-38.29122905 24.17701647 -39.80166507 23.93101274 -41.3125 23.6875 C-49.08855628 22.168758 -49.08855628 22.168758 -51.67578125 19.33203125 C-52.61313197 17.02915725 -53.21718392 14.78540566 -53.8125 12.375 C-55.01849932 10.25261411 -56.3868043 8.36079044 -57.8125 6.375 C-38.97530686 1.23758369 -19.43484418 -0.01881118 0 0 Z " fill="#03FDD7" transform="translate(290.8125,104.625)"/>
<path d="M0 0 C5.75076409 1.24753019 11.46214294 2.59803853 17.16015625 4.06640625 C52.86390768 13.14031633 89.1859166 21.31753983 126 24 C127.26038086 24.09861328 128.52076172 24.19722656 129.81933594 24.29882812 C159.65552576 26.6229521 189.75045535 27.42645564 219.31689453 21.87768555 C225.67556566 20.71005022 225.67556566 20.71005022 229 22 C220.60731158 31.24615417 202.80144269 35.77166852 191 38 C190.05833984 38.17901855 189.11667969 38.35803711 188.14648438 38.54248047 C151.7613323 45.2003565 118.21843082 40.33062033 82.69628906 31.64306641 C79.73970027 30.93791837 76.77445822 30.28404665 73.8046875 29.63671875 C47.63418354 23.89130349 21.68214275 17.46693038 0 1 C0 0.67 0 0.34 0 0 Z " fill="#03FDD7" transform="translate(45,339)"/>
<path d="M0 0 C1.06331543 0.31904297 2.12663086 0.63808594 3.22216797 0.96679688 C9.75834544 3.0611827 14.88163053 5.58327999 20 10.1875 C20.84111328 10.92577026 20.84111328 10.92577026 21.69921875 11.67895508 C23 13.1875 23 13.1875 23.25 16.25 C23 19.1875 23 19.1875 22 21.1875 C19.46962723 19.94169284 17.02310378 18.63688577 14.5625 17.25 C-0.38059244 9.87477205 -18.43073151 10.82242 -34.65405273 11.80175781 C-36.93223683 11.93718712 -39.21081781 12.05152288 -41.49023438 12.1640625 C-54.70520991 12.87819607 -67.8708556 14.50973393 -80.5 18.625 C-81.15162109 18.83600342 -81.80324219 19.04700684 -82.47460938 19.2644043 C-87.48359071 20.9222276 -92.25091176 22.89776102 -97 25.1875 C-98.30253304 19.40750965 -99.11670893 14.13965527 -99 8.1875 C-99.30723958 6.51582637 -99.63636482 4.84781875 -100 3.1875 C-95.7389306 2.07183791 -91.47457239 0.96996732 -87.20703125 -0.12060547 C-85.76340841 -0.49141213 -84.32065505 -0.86562475 -82.87890625 -1.24365234 C-54.46969359 -8.68321571 -28.08931597 -8.6003462 0 0 Z " fill="#03FDD7" transform="translate(369,143.8125)"/>
<path d="M0 0 C-0.66 0.474375 -1.32 0.94875 -2 1.4375 C-10.34539353 8.56585697 -16.87196533 16.98298715 -19 28 C-19.06456879 29.41534778 -19.08611039 30.83337689 -19.0625 32.25 C-19.041875 33.4875 -19.02125 34.725 -19 36 C-24.5102276 37.8162065 -30.15673059 36.17797836 -35.75 35.3125 C-36.905 35.15072266 -38.06 34.98894531 -39.25 34.82226562 C-47.11108681 33.62425753 -53.94689092 32.35841999 -59.5 26.25 C-59.995 25.5075 -60.49 24.765 -61 24 C-57.13568527 16.05145018 -53.27614859 11.3217837 -45 8 C-30.44827858 3.16227147 -15.41938655 -0.62652135 0 0 Z " fill="#F7F7F7" transform="translate(327,158)"/>
<path d="M0 0 C0.82688828 -0.00095673 1.65377655 -0.00191345 2.50572205 -0.00289917 C4.24803748 -0.00357767 5.99035548 -0.00174645 7.73266602 0.00244141 C10.39670488 0.00780116 13.06057568 0.00248173 15.72460938 -0.00390625 C17.42057329 -0.00324554 19.1165371 -0.00196454 20.8125 0 C21.6073732 -0.00202423 22.4022464 -0.00404846 23.22120667 -0.00613403 C26.76448533 0.00887102 29.93087426 0.17923929 33.33984375 1.1328125 C34.72412006 6.17067053 35.50785435 11.29397058 33.46875 16.25 C28.36194315 24.85622531 21.62930524 30.44759652 12.33984375 34.1328125 C11.67984375 34.1328125 11.01984375 34.1328125 10.33984375 34.1328125 C10.10201172 32.6478125 10.10201172 32.6478125 9.859375 31.1328125 C7.8153196 18.81539337 7.8153196 18.81539337 0.14453125 9.39453125 C-5.52073425 5.67392585 -10.96502275 3.95902046 -17.66015625 3.1328125 C-11.97394775 -0.02619222 -6.38330819 -0.01629729 0 0 Z " fill="#F6F6F6" transform="translate(234.66015625,159.8671875)"/>
<path d="M0 0 C14.04348659 -0.51799746 26.98891184 0.84223434 39 9 C41.02740774 11.81122196 41.9290996 13.57459759 42.5 17 C41.81265054 21.12409675 40.15314224 22.29491383 37 25 C34.5599096 26.36383989 32.04803499 27.38417748 29.4375 28.375 C28.77814453 28.64699219 28.11878906 28.91898438 27.43945312 29.19921875 C23.99083694 30.55093766 21.51418682 31.5201317 18 30 C17.84144531 29.0821875 17.68289063 28.164375 17.51953125 27.21875 C15.35648994 15.84186972 12.33512231 8.94603887 3 2 C2.01 1.34 1.02 0.68 0 0 Z " fill="#F6F6F6" transform="translate(349,157)"/>
<path d="M0 0 C0 0.99 0 1.98 0 3 C-1.57421875 4.54296875 -1.57421875 4.54296875 -3.6875 6.1875 C-10.8897071 12.26992931 -13.7255621 18.97621386 -16 28 C-20.88094439 27.32209106 -25.05025158 25.38474523 -29.5 23.375 C-30.68408447 22.84519531 -30.68408447 22.84519531 -31.89208984 22.3046875 C-38.77678172 19.18351571 -45.42062626 15.71978727 -52 12 C-52 11.34 -52 10.68 -52 10 C-50.93265625 9.97421875 -49.8653125 9.9484375 -48.765625 9.921875 C-31.81331146 9.34421779 -15.75228713 6.36350672 0 0 Z " fill="#EFEFEF" transform="translate(199,167)"/>
<path d="M0 0 C2.6920933 0.89105976 5.38821118 1.76834357 8.0871582 2.63842773 C9.90781004 3.2286776 11.72456922 3.83116696 13.53588867 4.44946289 C26.72764777 8.82045632 40.10230759 10.49490183 53.9375 11.1875 C55.03094727 11.24679184 55.03094727 11.24679184 56.14648438 11.30728149 C68.92779043 11.99074538 81.70196333 12.18351017 94.5 12.1875 C95.75839188 12.18899551 95.75839188 12.18899551 97.04220581 12.19052124 C109.05616735 12.18889823 121.00916399 11.73297949 133 11 C133 11.66 133 12.32 133 13 C124.69119738 14.84530869 116.72878188 15.30710617 108.234375 15.30078125 C106.27047821 15.30720894 106.27047821 15.30720894 104.26690674 15.31376648 C101.49674425 15.32118762 98.72670913 15.32097471 95.95654297 15.31567383 C93.18782012 15.31110723 90.41954328 15.31771781 87.65087891 15.33618164 C72.40019241 15.43686553 57.30108389 15.1020706 42.11328125 13.62890625 C40.84993958 13.50719559 39.5865979 13.38548492 38.28497314 13.26008606 C24.22435613 11.77436513 11.6127422 8.02744074 -1.59375 3.13671875 C-14.78355985 -1.26492651 -26.99780731 -1.47428693 -40.625 0 C-46.78855051 0.66101846 -52.79816875 1.11565186 -59 1 C-57.17552568 -1.3954429 -56.05074645 -1.98727938 -53.0859375 -2.73046875 C-35.21923953 -4.93089366 -17.18554162 -5.98615995 0 0 Z " fill="#000000" transform="translate(203,292)"/>
<path d="M0 0 C3.62268942 0.5749605 6.31381821 1.53366574 9.484375 3.36328125 C20.53245905 9.5515568 30.48950254 13.94460611 43 16 C43.9477832 16.17289551 44.89556641 16.34579102 45.87207031 16.52392578 C60.00903642 18.67558703 75.31298125 17.38334843 89.4375 15.6875 C90.42339111 15.56987305 91.40928223 15.45224609 92.42504883 15.33105469 C99.43120386 14.40330712 106.17577924 12.81668458 113 11 C114.33270264 10.66415394 115.66577971 10.32976523 117 10 C115.89822514 13.30532457 115.10316567 14.01303027 112.5 16.1875 C109.46102258 18.75519215 106.49418885 21.37297174 103.5625 24.0625 C92.91762678 33.43070768 80.44924049 39.01754711 67.1875 43.80078125 C66.47980469 44.05641846 65.77210938 44.31205566 65.04296875 44.57543945 C62.69851422 45.06265342 61.25182803 44.7448111 59 44 C64.58017403 41.41862028 70.16840643 38.91524622 75.875 36.625 C87.81693703 31.64147847 97.36938944 25.51017628 107 17 C106.20231201 17.09087891 105.40462402 17.18175781 104.58276367 17.27539062 C43.05710537 24.13747878 43.05710537 24.13747878 19 12 C18.37399902 11.68836914 17.74799805 11.37673828 17.10302734 11.05566406 C15.06016867 10.03202224 13.02810882 8.99004425 11 7.9375 C10.36425049 7.60919189 9.72850098 7.28088379 9.07348633 6.94262695 C5.49907439 5.02596879 2.70039745 3.03119614 0 0 Z " fill="#000000" transform="translate(141,189)"/>
<path d="M0 0 C2.875 1.5 2.875 1.5 5 4 C5.65956631 6.79885528 5.62176765 9.19628845 5 12 C3.09496794 14.75171298 1.7143524 15.71801879 -1.375 16.9375 C-4.93108969 17.0221688 -7.00233435 15.83947665 -10 14 C-11.60776409 10.78447181 -11.60485913 7.47794 -11 4 C-7.72794548 0.1505241 -4.96702569 -0.82783761 0 0 Z " fill="#F1F1F1" transform="translate(226,178)"/>
<path d="M0 0 C-3.33734367 1.02504127 -6.2728615 1.0410935 -9.75 0.9375 C-20.28447862 0.88648558 -29.27978474 4.07935684 -37.5625 10.75 C-41.67702372 14.00591443 -46.18586968 16.37575328 -50.8125 18.8125 C-51.56668213 19.20985352 -52.32086426 19.60720703 -53.09790039 20.01660156 C-57.64527127 22.37847379 -61.51017775 24.04237367 -66.66796875 24.53515625 C-67.56064453 24.62216797 -68.45332031 24.70917969 -69.37304688 24.79882812 C-70.30181641 24.88583984 -71.23058594 24.97285156 -72.1875 25.0625 C-73.12787109 25.15337891 -74.06824219 25.24425781 -75.03710938 25.33789062 C-77.3577922 25.56171283 -79.67873689 25.78229246 -82 26 C-80 23 -80 23 -77 22 C-75.02173188 21.89752856 -73.04228037 21.81719255 -71.0625 21.75 C-57.80092233 20.75354997 -44.61413498 13.18154958 -34.36328125 4.859375 C-26.04152266 -1.68799209 -9.54441721 -5.65512308 0 0 Z " fill="#000000" transform="translate(209,139)"/>
<path d="M0 0 C2.5 1.5625 2.5 1.5625 4 4 C4 7.81153499 3.80074051 10.05097421 1.3125 13 C-1.87167993 14.37694267 -3.70924801 13.980224 -7 13 C-8.875 11.875 -8.875 11.875 -10 10 C-10.36528977 6.5906288 -10.6140629 4.11976176 -8.9375 1.0625 C-5.8347167 -0.63902633 -3.46230815 -0.42519574 0 0 Z " fill="#F0F0F0" transform="translate(347,173)"/>
<path d="M0 0 C3.125 0.375 3.125 0.375 6 1 C6.75 4.25 6.75 4.25 7 8 C5.3125 10.5 5.3125 10.5 3 12 C0.875 11.9375 0.875 11.9375 -1 11 C-3 8 -3 8 -2.75 4.9375 C-2 2 -2 2 0 0 Z " fill="#EAEAEA" transform="translate(203,172)"/>
<path d="M0 0 C0.99 0 1.98 0 3 0 C3.56267578 1.22976563 3.56267578 1.22976563 4.13671875 2.484375 C4.64847656 3.56203125 5.16023438 4.6396875 5.6875 5.75 C6.18636719 6.81734375 6.68523437 7.8846875 7.19921875 8.984375 C10.06535811 13.78407042 13.73494197 16.12803545 18.8125 18.25 C19.99779297 18.75273437 19.99779297 18.75273437 21.20703125 19.265625 C21.79871094 19.50796875 22.39039062 19.7503125 23 20 C23 20.99 23 21.98 23 23 C16.43309041 21.74250667 11.54674223 18.94628021 7 14 C4.18222239 9.58332107 2.07065669 4.80046134 0 0 Z " fill="#000000" transform="translate(97,304)"/>
<path d="M0 0 C1.67542976 0.28604898 3.34385343 0.61781233 5 1 C5.6875 2.75 5.6875 2.75 6 5 C4.5625 7.25 4.5625 7.25 3 9 C1.68 8.34 0.36 7.68 -1 7 C-1.04254356 5.00045254 -1.04080783 2.99958364 -1 1 C-0.67 0.67 -0.34 0.34 0 0 Z " fill="#E4E5E4" transform="translate(324,170)"/>
<path d="M0 0 C2.5 0.125 2.5 0.125 3.5 1.125 C3.54063832 2.79117115 3.542721 4.45888095 3.5 6.125 C-1.25 7.25 -1.25 7.25 -3.5 6.125 C-3.542721 4.45888095 -3.54063832 2.79117115 -3.5 1.125 C-2.5 0.125 -2.5 0.125 0 0 Z " fill="#E6E7E6" transform="translate(204.5,187.875)"/>
<path d="M0 0 C0.33 0.66 0.66 1.32 1 2 C0.07686093 4.60157375 -0.74341157 5.81557707 -3 7.4375 C-5.45285257 9.35379107 -6.05340705 11.0813384 -7 14 C-8 11 -8 11 -6.875 8.125 C-4.92485233 4.87475389 -2.78166085 2.55612078 0 0 Z " fill="#5A5C59" transform="translate(393,175)"/>
<path d="M0 0 C1.32 0 2.64 0 4 0 C4.33 1.32 4.66 2.64 5 4 C3.02 4.99 3.02 4.99 1 6 C0.34 5.34 -0.32 4.68 -1 4 C-0.625 1.875 -0.625 1.875 0 0 Z " fill="#D5D5D5" transform="translate(325,184)"/>
<path d="M0 0 C4.95 0 9.9 0 15 0 C15 0.33 15 0.66 15 1 C12.36 1 9.72 1 7 1 C7.33 2.32 7.66 3.64 8 5 C5.36 3.68 2.72 2.36 0 1 C0 0.67 0 0.34 0 0 Z " fill="#CCCDCC" transform="translate(349,157)"/>
<path d="M0 0 C0.99 0.33 1.98 0.66 3 1 C2.360625 1.556875 1.72125 2.11375 1.0625 2.6875 C-1.19680987 5.22066561 -1.63149047 6.68341424 -2 10 C-2.33 10 -2.66 10 -3 10 C-3.36923077 3.47692308 -3.36923077 3.47692308 -1.5 1.0625 C-1.005 0.711875 -0.51 0.36125 0 0 Z " fill="#D8DAD7" transform="translate(340,173)"/>
<path d="M0 0 C0 0.99 0 1.98 0 3 C-2.5 4.6875 -2.5 4.6875 -5 6 C-5 5.34 -5 4.68 -5 4 C-5.99 3.67 -6.98 3.34 -8 3 C-5.36 2.01 -2.72 1.02 0 0 Z " fill="#B7B9B6" transform="translate(199,167)"/>
<path d="M0 0 C0 0.99 0 1.98 0 3 C-2.97 2.67 -5.94 2.34 -9 2 C-5.23312136 0.11656068 -3.97041037 -0.22057835 0 0 Z " fill="#CACCCA" transform="translate(226,161)"/>
</svg>
