<?xml version="1.0" encoding="UTF-8"?>
<svg version="1.1" xmlns="http://www.w3.org/2000/svg" width="1156" height="250">
<path d="M0 0 C1.4540625 0.0309375 1.4540625 0.0309375 2.9375 0.0625 C4.95234743 8.37619085 5.48068083 16.55024002 5.9375 25.0625 C6.36047363 24.30517578 6.78344727 23.54785156 7.21923828 22.76757812 C8.80054083 19.96155395 10.40147092 17.16801672 12.01660156 14.38134766 C12.71121332 13.17339771 13.39782944 11.96081302 14.07617188 10.74365234 C15.05302068 8.99417897 16.06131156 7.26237906 17.0703125 5.53125 C17.66730957 4.48388672 18.26430664 3.43652344 18.87939453 2.35742188 C20.9375 0.0625 20.9375 0.0625 24.17919922 -0.27929688 C25.08943848 -0.16650391 25.99967773 -0.05371094 26.9375 0.0625 C28.2094001 3.8782003 27.27240326 6.44675966 26.25 10.1875 C25.86980754 11.63507947 25.49094421 13.08300855 25.11328125 14.53125 C24.91686035 15.27890625 24.72043945 16.0265625 24.51806641 16.796875 C23.59171957 20.41188704 22.76976806 24.04991818 21.9375 27.6875 C20.19455363 35.22637268 18.14683653 42.64712046 15.9375 50.0625 C13.6275 50.0625 11.3175 50.0625 8.9375 50.0625 C10.31280517 41.98864962 12.03781645 34.02850635 13.9375 26.0625 C13.53917969 26.66578125 13.14085937 27.2690625 12.73046875 27.890625 C12.20066406 28.68984375 11.67085937 29.4890625 11.125 30.3125 C10.60292969 31.10140625 10.08085937 31.8903125 9.54296875 32.703125 C8.74826172 33.87101562 8.74826172 33.87101562 7.9375 35.0625 C7.50050781 35.82046875 7.06351563 36.5784375 6.61328125 37.359375 C6.06027344 37.92140625 5.50726563 38.4834375 4.9375 39.0625 C2.9575 39.0625 0.9775 39.0625 -1.0625 39.0625 C-1.3925 33.7825 -1.7225 28.5025 -2.0625 23.0625 C-2.31644531 24.25746094 -2.57039062 25.45242187 -2.83203125 26.68359375 C-6.69276452 44.6318562 -6.69276452 44.6318562 -9.0625 50.0625 C-10.96875 50.96484375 -10.96875 50.96484375 -13.0625 51.0625 C-14.7399292 49.85855103 -14.7399292 49.85855103 -16.0625 48.0625 C-15.97442627 45.92416382 -15.97442627 45.92416382 -15.31738281 43.42333984 C-14.96151093 42.01705826 -14.96151093 42.01705826 -14.59844971 40.58236694 C-14.32361755 39.57292023 -14.0487854 38.56347351 -13.765625 37.5234375 C-13.36328644 35.96854111 -13.36328644 35.96854111 -12.95281982 34.38223267 C-12.08911965 31.06277771 -11.20069209 27.75047566 -10.3125 24.4375 C-9.72762972 22.19571292 -9.14427669 19.9535294 -8.5625 17.7109375 C-7.49211933 13.61924646 -6.42122344 9.52777368 -5.32519531 5.44287109 C-5.1051886 4.61919037 -4.88518188 3.79550964 -4.6585083 2.9468689 C-3.67416864 -0.16526736 -3.45940005 0.0706 0 0 Z " fill="#00F7B9" transform="translate(136.0625,28.9375)"/>
<path d="M0 0 C2.87659826 -0.1356886 5.74673463 -0.23440753 8.625 -0.3125 C9.43324219 -0.35439453 10.24148437 -0.39628906 11.07421875 -0.43945312 C15.30346931 -0.5254135 18.13280615 -0.37169598 21.51953125 2.31640625 C24.6710684 5.72602203 25.0771185 7.37289023 25 12 C23.25546533 19.8700812 23.25546533 19.8700812 20.359375 22.4765625 C18.75492717 23.92888715 18.75492717 23.92888715 19.03125 26.1640625 C19.1859375 26.97617187 19.340625 27.78828125 19.5 28.625 C20.2124508 34.04754217 19.51967104 38.13376508 17 43 C11.27365271 49.72845807 11.27365271 49.72845807 7.09887695 50.22705078 C6.40238037 50.21657715 5.70588379 50.20610352 4.98828125 50.1953125 C4.23095703 50.18886719 3.47363281 50.18242188 2.69335938 50.17578125 C1.90767578 50.15902344 1.12199219 50.14226562 0.3125 50.125 C-0.48478516 50.11597656 -1.28207031 50.10695312 -2.10351562 50.09765625 C-4.069139 50.07411585 -6.03460775 50.03824547 -8 50 C-7.47263068 40.43064392 -4.95529781 31.57085187 -2.4375 22.375 C-2.00774385 20.78274616 -1.57870151 19.19029947 -1.15039062 17.59765625 C-0.10847718 13.72949829 0.94306273 9.86407859 2 6 C1.01 5.67 0.02 5.34 -1 5 C-0.67 3.35 -0.34 1.7 0 0 Z M9 6 C7.68 10.95 6.36 15.9 5 21 C10.26327456 21.50398407 10.26327456 21.50398407 14.9375 19.6875 C17.32847699 15.89006596 17.23821645 12.36730162 17 8 C16.34 7.34 15.68 6.68 15 6 C13.02 6 11.04 6 9 6 Z M4 27 C2.27147357 32.98336072 0.63040815 38.98922864 -1 45 C4.2688427 44.58675744 7.22944438 43.77055562 11 40 C13.50693965 36.53803573 13.38642258 33.17336383 13 29 C9.5647952 26.70986347 8.014669 26.82157027 4 27 Z " fill="#00F7B9" transform="translate(238,29)"/>
<path d="M0 0 C3.64971923 1.82485961 5.53878889 3.07757778 7.375 6.75 C8.66903546 13.47898437 7.98417512 19.40706012 6.25 25.9375 C5.97820923 26.98236572 5.97820923 26.98236572 5.70092773 28.04833984 C3.23670764 37.20359461 0.26808446 45.28839504 -7.75 50.9375 C-12.08657317 52.35522584 -15.63428203 52.36117442 -20 51 C-24.06096041 47.34513563 -24.76835702 44.13876232 -25.15625 38.8828125 C-25.61535765 26.90775475 -21.85066788 15.10039173 -14.5625 5.5625 C-10.24853389 1.24853389 -6.15681295 -0.89786856 0 0 Z M-10 10 C-15.99094878 19.73314601 -19.59887433 30.78280977 -17.0625 42.1875 C-16.711875 43.445625 -16.36125 44.70375 -16 46 C-12.34793431 45.75099552 -10.53513427 45.56286676 -7.96484375 42.859375 C-5.85836109 39.79387738 -4.59340637 36.92463627 -3.3125 33.4375 C-2.89613281 32.32246094 -2.47976562 31.20742188 -2.05078125 30.05859375 C-0.35257341 25.11548321 0.15997078 21.14959805 0.1875 15.875 C0.20167969 14.63492188 0.21585938 13.39484375 0.23046875 12.1171875 C0.33360843 8.89824543 0.33360843 8.89824543 -2 7 C-5.86725676 7 -6.97494338 7.55114464 -10 10 Z " fill="#00F6B9" transform="translate(190,28)"/>
<path d="M0 0 C3.01182052 2.19868248 3.9017112 3.38550152 4.49609375 7.1015625 C4.3156597 17.95166346 3.19249936 26.57951294 -4 35 C-7.19068573 37.36728296 -10.0941043 37.40686414 -14 37 C-17.1359157 35.22015595 -17.84102736 34.47691793 -19 31 C-19.93036198 22.10817981 -18.52603404 13.24407614 -13.46875 5.72265625 C-9.29193555 0.71662129 -6.75591657 -0.5824066 0 0 Z M-6 7 C-10.96526815 12.62730391 -12.27696533 17.42869905 -12.125 24.875 C-12.10695313 26.02742188 -12.08890625 27.17984375 -12.0703125 28.3671875 C-12.04710937 29.23601562 -12.02390625 30.10484375 -12 31 C-9.28459023 30.65840261 -8.26062198 30.3350854 -6.55078125 28.13671875 C-3.15554206 21.4212141 -2.14174174 15.49942652 -2 8 C-3.32 7.67 -4.64 7.34 -6 7 Z " fill="#00FABC" transform="translate(284,43)"/>
<path d="M0 0 C2 0.6875 2 0.6875 4 2.6875 C4.56520003 5.34287372 4.73788198 7.97894713 5 10.6875 C7.31986067 8.71561843 8.4930891 6.75100674 9.8125 4.0625 C10.81640625 2.20703125 10.81640625 2.20703125 12 0.6875 C15.25 -0.25 15.25 -0.25 18 -0.3125 C19 2.6875 19 2.6875 17.5625 5.875 C16.7890625 7.2671875 16.7890625 7.2671875 16 8.6875 C15.34 8.6875 14.68 8.6875 14 8.6875 C13.7525 9.368125 13.505 10.04875 13.25 10.75 C12 13.6875 12 13.6875 9.75 16.8125 C7.70108614 20.23486161 8.03008811 22.45743742 8.8125 26.3125 C9.04582031 27.21226563 9.27914063 28.11203125 9.51953125 29.0390625 C10.04165289 31.91709883 9.74449279 33.88172446 9 36.6875 C7.35 36.3575 5.7 36.0275 4 35.6875 C3.67 32.7175 3.34 29.7475 3 26.6875 C2.2575 27.43 1.515 28.1725 0.75 28.9375 C-0.1575 29.845 -1.065 30.7525 -2 31.6875 C-2.639375 32.450625 -3.27875 33.21375 -3.9375 34 C-6.69156202 36.25332347 -8.54031142 36.00201714 -12 35.6875 C-11.60081495 32.02541103 -9.77972213 30.1794888 -7.30371094 27.57739258 C-2.81145603 22.90622845 -2.81145603 22.90622845 -0.4921875 16.99609375 C-0.75679563 14.43420593 -1.27329853 12.15667904 -2 9.6875 C-2.35877693 7.98012894 -2.71316767 6.27182844 -3.0625 4.5625 C-3.371875 3.28375 -3.68125 2.005 -4 0.6875 C-2 -0.3125 -2 -0.3125 0 0 Z " fill="#00F9BB" transform="translate(300,43.3125)"/>
<path d="M0 0 C6.6 0 13.2 0 20 0 C20.33 1.32 20.66 2.64 21 4 C20 5 20 5 17.95874023 5.11352539 C17.08419189 5.10828857 16.20964355 5.10305176 15.30859375 5.09765625 C14.36435547 5.09443359 13.42011719 5.09121094 12.44726562 5.08789062 C11.45404297 5.07951172 10.46082031 5.07113281 9.4375 5.0625 C8.44041016 5.05798828 7.44332031 5.05347656 6.41601562 5.04882812 C3.94395151 5.03700007 1.47200482 5.02051849 -1 5 C-0.67 3.35 -0.34 1.7 0 0 Z " fill="#00FABB" transform="translate(204,54)"/>
</svg>
